<mxfile host="app.diagrams.net" modified="2023-09-07T02:37:32.132Z" agent="Mozilla/5.0 (Windows NT 10.0; Win64; x64) AppleWebKit/537.36 (KHTML, like Gecko) Chrome/116.0.0.0 Safari/537.36 Edg/116.0.1938.69" etag="r0nGerHdXCXMFeBiMnMu" version="21.7.2" type="device">
  <diagram name="PÃ¡gina-1" id="z7lU7NES_yup9qPbbsdP">
    <mxGraphModel dx="911" dy="517" grid="1" gridSize="10" guides="1" tooltips="1" connect="1" arrows="1" fold="1" page="1" pageScale="1" pageWidth="827" pageHeight="1169" math="0" shadow="0">
      <root>
        <mxCell id="0" />
        <mxCell id="1" parent="0" />
        <mxCell id="DTSlRlV-8X0Bd9PYzhEI-66" style="edgeStyle=orthogonalEdgeStyle;rounded=0;orthogonalLoop=1;jettySize=auto;html=1;exitX=0.5;exitY=0;exitDx=0;exitDy=0;entryX=0.5;entryY=1;entryDx=0;entryDy=0;" edge="1" parent="1" source="DTSlRlV-8X0Bd9PYzhEI-1" target="DTSlRlV-8X0Bd9PYzhEI-57">
          <mxGeometry relative="1" as="geometry" />
        </mxCell>
        <mxCell id="DTSlRlV-8X0Bd9PYzhEI-73" value="" style="edgeStyle=orthogonalEdgeStyle;rounded=0;orthogonalLoop=1;jettySize=auto;html=1;entryX=0.5;entryY=1;entryDx=0;entryDy=0;" edge="1" parent="1" source="DTSlRlV-8X0Bd9PYzhEI-1" target="DTSlRlV-8X0Bd9PYzhEI-61">
          <mxGeometry relative="1" as="geometry" />
        </mxCell>
        <mxCell id="DTSlRlV-8X0Bd9PYzhEI-74" value="" style="edgeStyle=orthogonalEdgeStyle;rounded=0;orthogonalLoop=1;jettySize=auto;html=1;entryX=0.5;entryY=0;entryDx=0;entryDy=0;" edge="1" parent="1" source="DTSlRlV-8X0Bd9PYzhEI-1" target="DTSlRlV-8X0Bd9PYzhEI-60">
          <mxGeometry relative="1" as="geometry" />
        </mxCell>
        <mxCell id="DTSlRlV-8X0Bd9PYzhEI-1" value="Sucursal" style="whiteSpace=wrap;html=1;align=center;" vertex="1" parent="1">
          <mxGeometry x="190" y="100" width="100" height="40" as="geometry" />
        </mxCell>
        <mxCell id="DTSlRlV-8X0Bd9PYzhEI-79" value="" style="edgeStyle=orthogonalEdgeStyle;rounded=0;orthogonalLoop=1;jettySize=auto;html=1;" edge="1" parent="1" source="DTSlRlV-8X0Bd9PYzhEI-2" target="DTSlRlV-8X0Bd9PYzhEI-77">
          <mxGeometry relative="1" as="geometry" />
        </mxCell>
        <mxCell id="DTSlRlV-8X0Bd9PYzhEI-80" style="edgeStyle=orthogonalEdgeStyle;rounded=0;orthogonalLoop=1;jettySize=auto;html=1;entryX=0;entryY=0.5;entryDx=0;entryDy=0;" edge="1" parent="1" source="DTSlRlV-8X0Bd9PYzhEI-2" target="DTSlRlV-8X0Bd9PYzhEI-76">
          <mxGeometry relative="1" as="geometry" />
        </mxCell>
        <mxCell id="DTSlRlV-8X0Bd9PYzhEI-81" style="edgeStyle=orthogonalEdgeStyle;rounded=0;orthogonalLoop=1;jettySize=auto;html=1;entryX=0;entryY=0.5;entryDx=0;entryDy=0;" edge="1" parent="1" source="DTSlRlV-8X0Bd9PYzhEI-2" target="DTSlRlV-8X0Bd9PYzhEI-75">
          <mxGeometry relative="1" as="geometry" />
        </mxCell>
        <mxCell id="DTSlRlV-8X0Bd9PYzhEI-82" style="edgeStyle=orthogonalEdgeStyle;rounded=0;orthogonalLoop=1;jettySize=auto;html=1;entryX=0;entryY=0.5;entryDx=0;entryDy=0;" edge="1" parent="1" source="DTSlRlV-8X0Bd9PYzhEI-2" target="DTSlRlV-8X0Bd9PYzhEI-78">
          <mxGeometry relative="1" as="geometry" />
        </mxCell>
        <mxCell id="DTSlRlV-8X0Bd9PYzhEI-88" value="" style="edgeStyle=orthogonalEdgeStyle;rounded=0;orthogonalLoop=1;jettySize=auto;html=1;" edge="1" parent="1" source="DTSlRlV-8X0Bd9PYzhEI-2" target="DTSlRlV-8X0Bd9PYzhEI-87">
          <mxGeometry relative="1" as="geometry" />
        </mxCell>
        <mxCell id="DTSlRlV-8X0Bd9PYzhEI-2" value="Empleados" style="whiteSpace=wrap;html=1;align=center;" vertex="1" parent="1">
          <mxGeometry x="540" y="100" width="100" height="40" as="geometry" />
        </mxCell>
        <mxCell id="DTSlRlV-8X0Bd9PYzhEI-104" style="edgeStyle=orthogonalEdgeStyle;rounded=0;orthogonalLoop=1;jettySize=auto;html=1;entryX=1;entryY=0.5;entryDx=0;entryDy=0;" edge="1" parent="1" source="DTSlRlV-8X0Bd9PYzhEI-3" target="DTSlRlV-8X0Bd9PYzhEI-89">
          <mxGeometry relative="1" as="geometry" />
        </mxCell>
        <mxCell id="DTSlRlV-8X0Bd9PYzhEI-108" style="edgeStyle=orthogonalEdgeStyle;rounded=0;orthogonalLoop=1;jettySize=auto;html=1;entryX=1;entryY=0.5;entryDx=0;entryDy=0;" edge="1" parent="1" source="DTSlRlV-8X0Bd9PYzhEI-3" target="DTSlRlV-8X0Bd9PYzhEI-90">
          <mxGeometry relative="1" as="geometry" />
        </mxCell>
        <mxCell id="DTSlRlV-8X0Bd9PYzhEI-109" style="edgeStyle=orthogonalEdgeStyle;rounded=0;orthogonalLoop=1;jettySize=auto;html=1;entryX=1;entryY=0.5;entryDx=0;entryDy=0;" edge="1" parent="1" source="DTSlRlV-8X0Bd9PYzhEI-3" target="DTSlRlV-8X0Bd9PYzhEI-91">
          <mxGeometry relative="1" as="geometry" />
        </mxCell>
        <mxCell id="DTSlRlV-8X0Bd9PYzhEI-110" style="edgeStyle=orthogonalEdgeStyle;rounded=0;orthogonalLoop=1;jettySize=auto;html=1;entryX=1;entryY=0.5;entryDx=0;entryDy=0;" edge="1" parent="1" source="DTSlRlV-8X0Bd9PYzhEI-3" target="DTSlRlV-8X0Bd9PYzhEI-92">
          <mxGeometry relative="1" as="geometry" />
        </mxCell>
        <mxCell id="DTSlRlV-8X0Bd9PYzhEI-3" value="Revistas" style="whiteSpace=wrap;html=1;align=center;" vertex="1" parent="1">
          <mxGeometry x="190" y="610" width="100" height="40" as="geometry" />
        </mxCell>
        <mxCell id="DTSlRlV-8X0Bd9PYzhEI-97" value="" style="edgeStyle=orthogonalEdgeStyle;rounded=0;orthogonalLoop=1;jettySize=auto;html=1;" edge="1" parent="1" source="DTSlRlV-8X0Bd9PYzhEI-4" target="DTSlRlV-8X0Bd9PYzhEI-94">
          <mxGeometry relative="1" as="geometry" />
        </mxCell>
        <mxCell id="DTSlRlV-8X0Bd9PYzhEI-98" style="edgeStyle=orthogonalEdgeStyle;rounded=0;orthogonalLoop=1;jettySize=auto;html=1;entryX=0;entryY=0.5;entryDx=0;entryDy=0;" edge="1" parent="1" source="DTSlRlV-8X0Bd9PYzhEI-4" target="DTSlRlV-8X0Bd9PYzhEI-95">
          <mxGeometry relative="1" as="geometry" />
        </mxCell>
        <mxCell id="DTSlRlV-8X0Bd9PYzhEI-99" style="edgeStyle=orthogonalEdgeStyle;rounded=0;orthogonalLoop=1;jettySize=auto;html=1;entryX=0;entryY=0.5;entryDx=0;entryDy=0;" edge="1" parent="1" source="DTSlRlV-8X0Bd9PYzhEI-4" target="DTSlRlV-8X0Bd9PYzhEI-93">
          <mxGeometry relative="1" as="geometry" />
        </mxCell>
        <mxCell id="DTSlRlV-8X0Bd9PYzhEI-100" style="edgeStyle=orthogonalEdgeStyle;rounded=0;orthogonalLoop=1;jettySize=auto;html=1;entryX=0;entryY=0.5;entryDx=0;entryDy=0;" edge="1" parent="1" source="DTSlRlV-8X0Bd9PYzhEI-4" target="DTSlRlV-8X0Bd9PYzhEI-96">
          <mxGeometry relative="1" as="geometry" />
        </mxCell>
        <mxCell id="DTSlRlV-8X0Bd9PYzhEI-102" value="" style="edgeStyle=orthogonalEdgeStyle;rounded=0;orthogonalLoop=1;jettySize=auto;html=1;" edge="1" parent="1" source="DTSlRlV-8X0Bd9PYzhEI-4" target="DTSlRlV-8X0Bd9PYzhEI-101">
          <mxGeometry relative="1" as="geometry" />
        </mxCell>
        <mxCell id="DTSlRlV-8X0Bd9PYzhEI-4" value="Periodistas" style="whiteSpace=wrap;html=1;align=center;" vertex="1" parent="1">
          <mxGeometry x="540" y="610" width="100" height="40" as="geometry" />
        </mxCell>
        <mxCell id="DTSlRlV-8X0Bd9PYzhEI-5" value="Tiene" style="shape=rhombus;perimeter=rhombusPerimeter;whiteSpace=wrap;html=1;align=center;" vertex="1" parent="1">
          <mxGeometry x="353.5" y="90" width="120" height="60" as="geometry" />
        </mxCell>
        <mxCell id="DTSlRlV-8X0Bd9PYzhEI-120" style="edgeStyle=orthogonalEdgeStyle;rounded=0;orthogonalLoop=1;jettySize=auto;html=1;entryX=0.5;entryY=1;entryDx=0;entryDy=0;" edge="1" parent="1" source="DTSlRlV-8X0Bd9PYzhEI-12" target="DTSlRlV-8X0Bd9PYzhEI-116">
          <mxGeometry relative="1" as="geometry" />
        </mxCell>
        <mxCell id="DTSlRlV-8X0Bd9PYzhEI-121" style="edgeStyle=orthogonalEdgeStyle;rounded=0;orthogonalLoop=1;jettySize=auto;html=1;entryX=0.5;entryY=0;entryDx=0;entryDy=0;" edge="1" parent="1" source="DTSlRlV-8X0Bd9PYzhEI-12" target="DTSlRlV-8X0Bd9PYzhEI-119">
          <mxGeometry relative="1" as="geometry" />
        </mxCell>
        <mxCell id="DTSlRlV-8X0Bd9PYzhEI-127" style="edgeStyle=orthogonalEdgeStyle;rounded=0;orthogonalLoop=1;jettySize=auto;html=1;entryX=0;entryY=0.5;entryDx=0;entryDy=0;" edge="1" parent="1" source="DTSlRlV-8X0Bd9PYzhEI-12" target="DTSlRlV-8X0Bd9PYzhEI-126">
          <mxGeometry relative="1" as="geometry" />
        </mxCell>
        <mxCell id="DTSlRlV-8X0Bd9PYzhEI-12" value="Tiene" style="shape=rhombus;perimeter=rhombusPerimeter;whiteSpace=wrap;html=1;align=center;" vertex="1" parent="1">
          <mxGeometry x="180" y="350" width="120" height="60" as="geometry" />
        </mxCell>
        <mxCell id="DTSlRlV-8X0Bd9PYzhEI-124" style="edgeStyle=orthogonalEdgeStyle;rounded=0;orthogonalLoop=1;jettySize=auto;html=1;entryX=1;entryY=0.5;entryDx=0;entryDy=0;" edge="1" parent="1" source="DTSlRlV-8X0Bd9PYzhEI-25" target="DTSlRlV-8X0Bd9PYzhEI-123">
          <mxGeometry relative="1" as="geometry" />
        </mxCell>
        <mxCell id="DTSlRlV-8X0Bd9PYzhEI-125" style="edgeStyle=orthogonalEdgeStyle;rounded=0;orthogonalLoop=1;jettySize=auto;html=1;entryX=0;entryY=0.5;entryDx=0;entryDy=0;" edge="1" parent="1" source="DTSlRlV-8X0Bd9PYzhEI-25" target="DTSlRlV-8X0Bd9PYzhEI-122">
          <mxGeometry relative="1" as="geometry" />
        </mxCell>
        <mxCell id="DTSlRlV-8X0Bd9PYzhEI-129" style="edgeStyle=orthogonalEdgeStyle;rounded=0;orthogonalLoop=1;jettySize=auto;html=1;entryX=0.5;entryY=0;entryDx=0;entryDy=0;" edge="1" parent="1" source="DTSlRlV-8X0Bd9PYzhEI-25" target="DTSlRlV-8X0Bd9PYzhEI-128">
          <mxGeometry relative="1" as="geometry" />
        </mxCell>
        <mxCell id="DTSlRlV-8X0Bd9PYzhEI-25" value="Tiene" style="shape=rhombus;perimeter=rhombusPerimeter;whiteSpace=wrap;html=1;align=center;" vertex="1" parent="1">
          <mxGeometry x="360" y="600" width="120" height="60" as="geometry" />
        </mxCell>
        <mxCell id="DTSlRlV-8X0Bd9PYzhEI-29" value="" style="endArrow=none;html=1;rounded=0;exitX=1;exitY=0.5;exitDx=0;exitDy=0;entryX=0;entryY=0.5;entryDx=0;entryDy=0;" edge="1" parent="1" source="DTSlRlV-8X0Bd9PYzhEI-25" target="DTSlRlV-8X0Bd9PYzhEI-4">
          <mxGeometry relative="1" as="geometry">
            <mxPoint x="410" y="460" as="sourcePoint" />
            <mxPoint x="570" y="460" as="targetPoint" />
          </mxGeometry>
        </mxCell>
        <mxCell id="DTSlRlV-8X0Bd9PYzhEI-30" value="" style="endArrow=none;html=1;rounded=0;exitX=1;exitY=0.5;exitDx=0;exitDy=0;entryX=0;entryY=0.5;entryDx=0;entryDy=0;" edge="1" parent="1" source="DTSlRlV-8X0Bd9PYzhEI-3" target="DTSlRlV-8X0Bd9PYzhEI-25">
          <mxGeometry relative="1" as="geometry">
            <mxPoint x="230" y="460" as="sourcePoint" />
            <mxPoint x="390" y="460" as="targetPoint" />
          </mxGeometry>
        </mxCell>
        <mxCell id="DTSlRlV-8X0Bd9PYzhEI-31" value="" style="endArrow=none;html=1;rounded=0;exitX=0.5;exitY=1;exitDx=0;exitDy=0;entryX=0.5;entryY=0;entryDx=0;entryDy=0;" edge="1" parent="1" source="DTSlRlV-8X0Bd9PYzhEI-12" target="DTSlRlV-8X0Bd9PYzhEI-3">
          <mxGeometry relative="1" as="geometry">
            <mxPoint x="240" y="540" as="sourcePoint" />
            <mxPoint x="560" y="460" as="targetPoint" />
          </mxGeometry>
        </mxCell>
        <mxCell id="DTSlRlV-8X0Bd9PYzhEI-33" value="" style="endArrow=none;html=1;rounded=0;entryX=0;entryY=0.5;entryDx=0;entryDy=0;exitX=1;exitY=0.5;exitDx=0;exitDy=0;" edge="1" parent="1" source="DTSlRlV-8X0Bd9PYzhEI-1" target="DTSlRlV-8X0Bd9PYzhEI-5">
          <mxGeometry relative="1" as="geometry">
            <mxPoint x="230" y="190" as="sourcePoint" />
            <mxPoint x="390" y="190" as="targetPoint" />
          </mxGeometry>
        </mxCell>
        <mxCell id="DTSlRlV-8X0Bd9PYzhEI-34" value="" style="endArrow=none;html=1;rounded=0;entryX=0;entryY=0.5;entryDx=0;entryDy=0;exitX=1;exitY=0.5;exitDx=0;exitDy=0;" edge="1" parent="1" source="DTSlRlV-8X0Bd9PYzhEI-5" target="DTSlRlV-8X0Bd9PYzhEI-2">
          <mxGeometry relative="1" as="geometry">
            <mxPoint x="230" y="190" as="sourcePoint" />
            <mxPoint x="390" y="190" as="targetPoint" />
          </mxGeometry>
        </mxCell>
        <mxCell id="DTSlRlV-8X0Bd9PYzhEI-35" value="1" style="text;strokeColor=none;fillColor=none;spacingLeft=4;spacingRight=4;overflow=hidden;rotatable=0;points=[[0,0.5],[1,0.5]];portConstraint=eastwest;fontSize=12;whiteSpace=wrap;html=1;align=center;" vertex="1" parent="1">
          <mxGeometry x="280" y="100" width="40" height="30" as="geometry" />
        </mxCell>
        <mxCell id="DTSlRlV-8X0Bd9PYzhEI-36" value="N" style="text;strokeColor=none;fillColor=none;spacingLeft=4;spacingRight=4;overflow=hidden;rotatable=0;points=[[0,0.5],[1,0.5]];portConstraint=eastwest;fontSize=12;whiteSpace=wrap;html=1;align=center;" vertex="1" parent="1">
          <mxGeometry x="330" y="100" width="40" height="30" as="geometry" />
        </mxCell>
        <mxCell id="DTSlRlV-8X0Bd9PYzhEI-37" value="N" style="text;strokeColor=none;fillColor=none;spacingLeft=4;spacingRight=4;overflow=hidden;rotatable=0;points=[[0,0.5],[1,0.5]];portConstraint=eastwest;fontSize=12;whiteSpace=wrap;html=1;align=center;" vertex="1" parent="1">
          <mxGeometry x="510" y="100" width="40" height="30" as="geometry" />
        </mxCell>
        <mxCell id="DTSlRlV-8X0Bd9PYzhEI-38" value="1" style="text;strokeColor=none;fillColor=none;spacingLeft=4;spacingRight=4;overflow=hidden;rotatable=0;points=[[0,0.5],[1,0.5]];portConstraint=eastwest;fontSize=12;whiteSpace=wrap;html=1;align=center;" vertex="1" parent="1">
          <mxGeometry x="460.5" y="100" width="40" height="30" as="geometry" />
        </mxCell>
        <mxCell id="DTSlRlV-8X0Bd9PYzhEI-39" value="N : 1" style="text;strokeColor=none;fillColor=none;spacingLeft=4;spacingRight=4;overflow=hidden;rotatable=0;points=[[0,0.5],[1,0.5]];portConstraint=eastwest;fontSize=12;whiteSpace=wrap;html=1;align=center;" vertex="1" parent="1">
          <mxGeometry x="364" y="67" width="100" height="30" as="geometry" />
        </mxCell>
        <mxCell id="DTSlRlV-8X0Bd9PYzhEI-40" value="M" style="text;strokeColor=none;fillColor=none;spacingLeft=4;spacingRight=4;overflow=hidden;rotatable=0;points=[[0,0.5],[1,0.5]];portConstraint=eastwest;fontSize=12;whiteSpace=wrap;html=1;align=center;" vertex="1" parent="1">
          <mxGeometry x="212" y="587" width="40" height="30" as="geometry" />
        </mxCell>
        <mxCell id="DTSlRlV-8X0Bd9PYzhEI-41" value="M" style="text;strokeColor=none;fillColor=none;spacingLeft=4;spacingRight=4;overflow=hidden;rotatable=0;points=[[0,0.5],[1,0.5]];portConstraint=eastwest;fontSize=12;whiteSpace=wrap;html=1;align=center;" vertex="1" parent="1">
          <mxGeometry x="212" y="327" width="40" height="30" as="geometry" />
        </mxCell>
        <mxCell id="DTSlRlV-8X0Bd9PYzhEI-43" value="N" style="text;strokeColor=none;fillColor=none;spacingLeft=4;spacingRight=4;overflow=hidden;rotatable=0;points=[[0,0.5],[1,0.5]];portConstraint=eastwest;fontSize=12;whiteSpace=wrap;html=1;align=center;" vertex="1" parent="1">
          <mxGeometry x="212" y="136" width="40" height="30" as="geometry" />
        </mxCell>
        <mxCell id="DTSlRlV-8X0Bd9PYzhEI-44" value="N" style="text;strokeColor=none;fillColor=none;spacingLeft=4;spacingRight=4;overflow=hidden;rotatable=0;points=[[0,0.5],[1,0.5]];portConstraint=eastwest;fontSize=12;whiteSpace=wrap;html=1;align=center;" vertex="1" parent="1">
          <mxGeometry x="212" y="408" width="40" height="30" as="geometry" />
        </mxCell>
        <mxCell id="DTSlRlV-8X0Bd9PYzhEI-46" value="N : M" style="text;strokeColor=none;fillColor=none;spacingLeft=4;spacingRight=4;overflow=hidden;rotatable=0;points=[[0,0.5],[1,0.5]];portConstraint=eastwest;fontSize=12;whiteSpace=wrap;html=1;align=center;" vertex="1" parent="1">
          <mxGeometry x="140" y="365" width="40" height="30" as="geometry" />
        </mxCell>
        <mxCell id="DTSlRlV-8X0Bd9PYzhEI-52" value="N" style="text;strokeColor=none;fillColor=none;spacingLeft=4;spacingRight=4;overflow=hidden;rotatable=0;points=[[0,0.5],[1,0.5]];portConstraint=eastwest;fontSize=12;whiteSpace=wrap;html=1;align=center;" vertex="1" parent="1">
          <mxGeometry x="466.5" y="610" width="40" height="30" as="geometry" />
        </mxCell>
        <mxCell id="DTSlRlV-8X0Bd9PYzhEI-53" value="M" style="text;strokeColor=none;fillColor=none;spacingLeft=4;spacingRight=4;overflow=hidden;rotatable=0;points=[[0,0.5],[1,0.5]];portConstraint=eastwest;fontSize=12;whiteSpace=wrap;html=1;align=center;" vertex="1" parent="1">
          <mxGeometry x="510" y="610" width="40" height="30" as="geometry" />
        </mxCell>
        <mxCell id="DTSlRlV-8X0Bd9PYzhEI-54" value="M" style="text;strokeColor=none;fillColor=none;spacingLeft=4;spacingRight=4;overflow=hidden;rotatable=0;points=[[0,0.5],[1,0.5]];portConstraint=eastwest;fontSize=12;whiteSpace=wrap;html=1;align=center;" vertex="1" parent="1">
          <mxGeometry x="333.5" y="610" width="40" height="30" as="geometry" />
        </mxCell>
        <mxCell id="DTSlRlV-8X0Bd9PYzhEI-55" value="N" style="text;strokeColor=none;fillColor=none;spacingLeft=4;spacingRight=4;overflow=hidden;rotatable=0;points=[[0,0.5],[1,0.5]];portConstraint=eastwest;fontSize=12;whiteSpace=wrap;html=1;align=center;" vertex="1" parent="1">
          <mxGeometry x="282" y="610" width="40" height="30" as="geometry" />
        </mxCell>
        <mxCell id="DTSlRlV-8X0Bd9PYzhEI-56" value="N : M" style="text;strokeColor=none;fillColor=none;spacingLeft=4;spacingRight=4;overflow=hidden;rotatable=0;points=[[0,0.5],[1,0.5]];portConstraint=eastwest;fontSize=12;whiteSpace=wrap;html=1;align=center;" vertex="1" parent="1">
          <mxGeometry x="400" y="580" width="40" height="30" as="geometry" />
        </mxCell>
        <mxCell id="DTSlRlV-8X0Bd9PYzhEI-57" value="ID_SUCURSAL" style="ellipse;whiteSpace=wrap;html=1;align=center;fontStyle=4;strokeColor=#9673a6;fillColor=#e1d5e7;" vertex="1" parent="1">
          <mxGeometry x="190" y="20" width="100" height="40" as="geometry" />
        </mxCell>
        <mxCell id="DTSlRlV-8X0Bd9PYzhEI-60" value="TELEFONO" style="ellipse;whiteSpace=wrap;html=1;align=center;" vertex="1" parent="1">
          <mxGeometry x="60" y="149" width="100" height="40" as="geometry" />
        </mxCell>
        <mxCell id="DTSlRlV-8X0Bd9PYzhEI-61" value="DOMICILIO" style="ellipse;whiteSpace=wrap;html=1;align=center;" vertex="1" parent="1">
          <mxGeometry x="60" y="50" width="100" height="40" as="geometry" />
        </mxCell>
        <mxCell id="DTSlRlV-8X0Bd9PYzhEI-75" value="TELEFONO" style="ellipse;whiteSpace=wrap;html=1;align=center;" vertex="1" parent="1">
          <mxGeometry x="710" y="180" width="100" height="40" as="geometry" />
        </mxCell>
        <mxCell id="DTSlRlV-8X0Bd9PYzhEI-76" value="NOMBRE" style="ellipse;whiteSpace=wrap;html=1;align=center;" vertex="1" parent="1">
          <mxGeometry x="710" y="20" width="100" height="40" as="geometry" />
        </mxCell>
        <mxCell id="DTSlRlV-8X0Bd9PYzhEI-77" value="NIF_EPLEADOS" style="ellipse;whiteSpace=wrap;html=1;align=center;fontStyle=4;fillColor=#f8cecc;strokeColor=#b85450;" vertex="1" parent="1">
          <mxGeometry x="540" y="20" width="100" height="40" as="geometry" />
        </mxCell>
        <mxCell id="DTSlRlV-8X0Bd9PYzhEI-78" value="APELLIDOS" style="ellipse;whiteSpace=wrap;html=1;align=center;" vertex="1" parent="1">
          <mxGeometry x="710" y="100" width="100" height="40" as="geometry" />
        </mxCell>
        <mxCell id="DTSlRlV-8X0Bd9PYzhEI-87" value="ID_SUCURSAL" style="ellipse;whiteSpace=wrap;html=1;align=center;fontStyle=4;fillColor=#e1d5e7;strokeColor=#9673a6;" vertex="1" parent="1">
          <mxGeometry x="540" y="185" width="100" height="40" as="geometry" />
        </mxCell>
        <mxCell id="DTSlRlV-8X0Bd9PYzhEI-89" value="NO_REGISTRO" style="ellipse;whiteSpace=wrap;html=1;align=center;fontStyle=4;fillColor=#ffe6cc;strokeColor=#d79b00;" vertex="1" parent="1">
          <mxGeometry y="501.5" width="100" height="40" as="geometry" />
        </mxCell>
        <mxCell id="DTSlRlV-8X0Bd9PYzhEI-90" value="TITULO" style="ellipse;whiteSpace=wrap;html=1;align=center;" vertex="1" parent="1">
          <mxGeometry y="573.5" width="100" height="40" as="geometry" />
        </mxCell>
        <mxCell id="DTSlRlV-8X0Bd9PYzhEI-91" value="PERIODICIDAD" style="ellipse;whiteSpace=wrap;html=1;align=center;" vertex="1" parent="1">
          <mxGeometry y="648.5" width="100" height="40" as="geometry" />
        </mxCell>
        <mxCell id="DTSlRlV-8X0Bd9PYzhEI-92" value="TIPO" style="ellipse;whiteSpace=wrap;html=1;align=center;" vertex="1" parent="1">
          <mxGeometry y="718.5" width="100" height="40" as="geometry" />
        </mxCell>
        <mxCell id="DTSlRlV-8X0Bd9PYzhEI-93" value="APELLIDOS" style="ellipse;whiteSpace=wrap;html=1;align=center;" vertex="1" parent="1">
          <mxGeometry x="710" y="610" width="100" height="40" as="geometry" />
        </mxCell>
        <mxCell id="DTSlRlV-8X0Bd9PYzhEI-94" value="NIF_PERIODISTA" style="ellipse;whiteSpace=wrap;html=1;align=center;fontStyle=4;fillColor=#dae8fc;strokeColor=#6c8ebf;" vertex="1" parent="1">
          <mxGeometry x="540" y="530" width="100" height="40" as="geometry" />
        </mxCell>
        <mxCell id="DTSlRlV-8X0Bd9PYzhEI-95" value="NOMBRE" style="ellipse;whiteSpace=wrap;html=1;align=center;" vertex="1" parent="1">
          <mxGeometry x="710" y="530" width="100" height="40" as="geometry" />
        </mxCell>
        <mxCell id="DTSlRlV-8X0Bd9PYzhEI-96" value="TELEFONO" style="ellipse;whiteSpace=wrap;html=1;align=center;" vertex="1" parent="1">
          <mxGeometry x="710" y="690" width="100" height="40" as="geometry" />
        </mxCell>
        <mxCell id="DTSlRlV-8X0Bd9PYzhEI-101" value="EPECIALIDAD" style="ellipse;whiteSpace=wrap;html=1;align=center;" vertex="1" parent="1">
          <mxGeometry x="540" y="690" width="100" height="40" as="geometry" />
        </mxCell>
        <mxCell id="DTSlRlV-8X0Bd9PYzhEI-115" value="" style="endArrow=none;html=1;rounded=0;exitX=0.5;exitY=1;exitDx=0;exitDy=0;" edge="1" parent="1" source="DTSlRlV-8X0Bd9PYzhEI-1" target="DTSlRlV-8X0Bd9PYzhEI-12">
          <mxGeometry relative="1" as="geometry">
            <mxPoint x="310" y="250" as="sourcePoint" />
            <mxPoint x="470" y="250" as="targetPoint" />
          </mxGeometry>
        </mxCell>
        <mxCell id="DTSlRlV-8X0Bd9PYzhEI-116" value="ID_SUCURSAL" style="ellipse;whiteSpace=wrap;html=1;align=center;fontStyle=4;fillColor=#e1d5e7;strokeColor=#9673a6;" vertex="1" parent="1">
          <mxGeometry x="370" y="300" width="100" height="40" as="geometry" />
        </mxCell>
        <mxCell id="DTSlRlV-8X0Bd9PYzhEI-119" value="NO_REGISTRO" style="ellipse;whiteSpace=wrap;html=1;align=center;fontStyle=4;fillColor=#ffe6cc;strokeColor=#d79b00;" vertex="1" parent="1">
          <mxGeometry x="370" y="420" width="100" height="40" as="geometry" />
        </mxCell>
        <mxCell id="DTSlRlV-8X0Bd9PYzhEI-122" value="NIF_PERIODISTA" style="ellipse;whiteSpace=wrap;html=1;align=center;fontStyle=4;fillColor=#dae8fc;strokeColor=#6c8ebf;" vertex="1" parent="1">
          <mxGeometry x="457" y="790" width="100" height="40" as="geometry" />
        </mxCell>
        <mxCell id="DTSlRlV-8X0Bd9PYzhEI-123" value="NO_REGISTRO" style="ellipse;whiteSpace=wrap;html=1;align=center;fontStyle=4;fillColor=#ffe6cc;strokeColor=#d79b00;" vertex="1" parent="1">
          <mxGeometry x="283" y="790" width="100" height="40" as="geometry" />
        </mxCell>
        <mxCell id="DTSlRlV-8X0Bd9PYzhEI-126" value="SK" style="ellipse;whiteSpace=wrap;html=1;align=center;fontStyle=4;fillColor=#d5e8d4;strokeColor=#82b366;" vertex="1" parent="1">
          <mxGeometry x="490" y="360" width="100" height="40" as="geometry" />
        </mxCell>
        <mxCell id="DTSlRlV-8X0Bd9PYzhEI-128" value="SK" style="ellipse;whiteSpace=wrap;html=1;align=center;fontStyle=4;fillColor=#d5e8d4;strokeColor=#82b366;" vertex="1" parent="1">
          <mxGeometry x="370" y="900" width="100" height="40" as="geometry" />
        </mxCell>
      </root>
    </mxGraphModel>
  </diagram>
</mxfile>
